<?xml version="1.0" encoding="utf-8"?>
<!-- Generator: Adobe Illustrator 25.2.1, SVG Export Plug-In . SVG Version: 6.00 Build 0)  -->
<svg version="1.1" id="レイヤー_1" xmlns="http://www.w3.org/2000/svg" xmlns:xlink="http://www.w3.org/1999/xlink" x="0px"
	 y="0px" viewBox="0 0 184.07 26.6" style="enable-background:new 0 0 184.07 26.6;" xml:space="preserve">
<style type="text/css">
	.st0{fill:#040000;}
</style>
<g>
	<path class="st0" d="M11.62,4.13l-5.96,22.3H1.9l5.96-22.3H0l0.85-3.12h19.49l-0.85,3.12H11.62z"/>
	<path class="st0" d="M27.86,26.43l2.54-9.46c0.92-3.39-0.03-4.91-2.91-4.91c-2.88,0-4.64,1.52-5.56,4.91l-2.54,9.46H15.9L22.98,0
		h3.49l-3.19,11.9c1.56-1.49,3.63-2.68,6.64-2.68c3.52,0,5.49,1.9,4.2,6.71l-2.78,10.51H27.86z"/>
	<path class="st0" d="M51.48,15.96l-2.81,10.47h-3.49l0.51-1.83c-1.66,1.66-3.93,2-5.63,2c-3.15,0-5.19-1.76-4.3-5.08
		c1.02-3.83,4.64-5.66,9.22-5.66h3.05c0.54-2.03,0.3-3.8-1.9-3.8c-1.59,0-2.81,0.54-4.58,1.73l-1.76-1.66
		c2.27-1.83,4.98-2.91,7.39-2.91C50.84,9.22,52.74,11.32,51.48,15.96z M47.18,18.98H44.6c-3.49,0-4.88,0.81-5.29,2.37
		c-0.47,1.69,0.78,2.41,2.34,2.41c3.29,0,4.61-1.39,5.12-3.22L47.18,18.98z"/>
	<path class="st0" d="M62.97,26.43l2.54-9.46c0.92-3.39-0.03-4.91-2.91-4.91c-2.88,0-4.64,1.52-5.56,4.91l-2.54,9.46h-3.49
		l4.58-17.05h3.49L58.4,11.9c1.56-1.49,3.63-2.68,6.64-2.68c3.52,0,5.49,1.9,4.2,6.71l-2.78,10.51H62.97z"/>
	<path class="st0" d="M74.46,19.76l-1.8,6.68h-3.49L76.26,0h3.49l-4.17,15.56l8.88-6.17h4.95l-9.62,6.81l5.56,10.23h-4.07
		l-4.51-8.27L74.46,19.76z"/>
	<path class="st0" d="M97.68,17.15c1.73,0.78,4,2,3.22,4.95c-0.71,2.58-3.52,4.51-7.12,4.51c-2.98,0-5.22-0.98-6.41-2.54l2.81-2.14
		c0.75,0.85,2.17,1.83,3.97,1.83c1.83,0,2.95-0.61,3.29-1.83c0.37-1.42-1.02-1.93-3.22-2.95c-3.02-1.36-4.24-2.71-3.63-5.08
		c0.78-2.88,3.93-4.68,7.49-4.68c2.34,0,4.3,0.88,5.46,2.47l-2.71,2.07c-0.78-1.02-2-1.69-3.49-1.69s-2.92,0.64-3.22,1.8
		C93.75,15.22,94.76,15.83,97.68,17.15z"/>
	<path class="st0" d="M127.61,19.72h-6.1l-1.8,6.71h-3.76l6.81-25.42h9.86c4.95,0,7.83,4.2,6.44,9.35
		C137.67,15.52,133.57,19.72,127.61,19.72z M135.3,10.37c0.92-3.42-0.68-6.24-3.59-6.24h-6.03l-3.32,12.47h6.03
		C131.3,16.61,134.38,13.79,135.3,10.37z"/>
	<path class="st0" d="M156.55,17.93c-1.36,4.98-5.56,8.68-11.05,8.68c-4.81,0-7.73-3.69-6.37-8.68c1.32-4.98,5.52-8.71,11.01-8.71
		C154.96,9.22,157.87,12.95,156.55,17.93z M142.62,17.93c-1.02,3.73,0.78,5.83,3.66,5.83s5.76-2.1,6.78-5.83
		c0.98-3.76-0.78-5.86-3.66-5.86S143.6,14.17,142.62,17.93z"/>
	<path class="st0" d="M166.89,17.15c1.73,0.78,4,2,3.22,4.95c-0.71,2.58-3.52,4.51-7.12,4.51c-2.98,0-5.22-0.98-6.41-2.54l2.81-2.14
		c0.75,0.85,2.17,1.83,3.96,1.83c1.83,0,2.95-0.61,3.29-1.83c0.37-1.42-1.02-1.93-3.22-2.95c-3.02-1.36-4.24-2.71-3.63-5.08
		c0.78-2.88,3.93-4.68,7.49-4.68c2.34,0,4.3,0.88,5.46,2.47l-2.71,2.07c-0.78-1.02-2-1.69-3.49-1.69s-2.91,0.64-3.22,1.8
		C162.96,15.22,163.97,15.83,166.89,17.15z"/>
	<path class="st0" d="M179.6,26.1c-0.85,0.3-1.56,0.51-2.81,0.51c-3.05,0-3.25-2.1-2.03-6.64l2.07-7.73h-2.03l0.75-2.85h2.03
		l1.05-3.97h3.49l-1.05,3.97h3.02l-0.75,2.85h-3.02l-1.9,7.05c-0.91,3.39-1.32,4.71,1.9,4.1L179.6,26.1z"/>
</g>
</svg>
